<svg width="519.1170568561874" height="108.04679264214047" xmlns="http://www.w3.org/2000/svg" xmlns:svg="http://www.w3.org/2000/svg" xmlns:xlink="http://www.w3.org/1999/xlink" preserveAspectRatio="none">
 <defs>
  <path id="cua96ZFBd" d="m209.64,177.59l5.7,0.38l0,0l5.73,0.53l5.76,0.67l5.78,0.83l5.82,0.98l5.84,1.13l5.87,1.28l5.9,1.43l5.92,1.59l5.96,1.73l5.98,1.88l6.02,2.04l6.04,2.18l6.07,2.34l6.09,2.48l6.13,2.64l0,0l6.16,2.79l4.38,2.08l1.8,0.85l6.19,2.94l6.17,2.79l6.16,2.64l6.14,2.48l6.13,2.34l6.11,2.18l6.1,2.04l6.08,1.88l6.06,1.73l6.05,1.59l6.03,1.43l6.02,1.28l6,1.13l5.99,0.98l5.97,0.83l5.95,0.67l5.94,0.53l5.93,0.38l5.91,0.22l5.89,0.08l5.87,-0.08l5.87,-0.22l5.84,-0.38l5.83,-0.53l5.82,-0.67l5.79,-0.83l5.79,-0.98l5.76,-1.13l5.76,-1.28l5.73,-1.43l5.72,-1.59l5.71,-1.73l5.69,-1.88l5.67,-2.04l5.66,-2.18l5.64,-2.34l5.63,-2.48l5.61,-2.64l5.59,-2.79l5.58,-2.93l0,0l0,73.91l-515.11,0l0,-39.93l53.44,-33.28l1.14,-0.71l5.07,-2.93l5.11,-2.79l5.13,-2.64l5.16,-2.48l5.18,-2.34l5.22,-2.18l5.25,-2.04l5.27,-1.88l5.3,-1.73l5.33,-1.59l5.36,-1.43l5.39,-1.28l5.41,-1.13l5.45,-0.98l5.47,-0.83l5.5,-0.67l5.53,-0.53l5.56,-0.38l5.58,-0.22l5.62,-0.08l5.64,0.08l5.67,0.22z"/>
 </defs>
 <g>
  <title>Layer 1</title>
  <g stroke="null" id="svg_1">
   <g stroke="null" id="svg_2">
    <use stroke="null" transform="matrix(1.0135893821716309,0,0,1.0288323163986206,0.015491887381358538,-0.09485812737511878) " x="-38" y="-174" id="svg_3" fill="#ffffff" xlink:href="#cua96ZFBd"/>
   </g>
  </g>
 </g>
</svg>
