<?xml version="1.0" encoding="UTF-8" standalone="no"?>
<!DOCTYPE svg PUBLIC "-//W3C//DTD SVG 1.1//EN" "http://www.w3.org/Graphics/SVG/1.1/DTD/svg11.dtd">
<svg version="1.1" xmlns="http://www.w3.org/2000/svg" xmlns:xlink="http://www.w3.org/1999/xlink" preserveAspectRatio="xMidYMid meet" viewBox="262.78187381532246 150.67311428457583 107.29044117647061 323.32542269804514" width="103.29" height="319.33"><defs><path d="M322.69 151.74L322.98 151.82L323.26 151.94L323.53 152.09L323.81 152.27L324.07 152.49L324.34 152.74L324.6 153.03L324.85 153.34L325.11 153.7L325.35 154.08L325.6 154.5L325.84 154.95L326.07 155.43L326.31 155.95L326.53 156.5L326.76 157.09L326.98 157.71L327.19 158.36L329.33 200.07L329.6 198.77L329.87 197.48L330.14 196.22L330.41 194.97L330.69 193.74L330.96 192.53L331.24 191.34L331.51 190.17L331.79 189.01L332.07 187.87L332.36 186.75L332.64 185.65L332.92 184.56L333.21 183.5L333.49 182.45L333.78 181.42L334.07 180.4L334.36 179.41L334.65 178.43L334.95 177.48L335.24 176.54L335.54 175.61L335.84 174.71L336.14 173.82L336.44 172.95L336.74 172.1L337.04 171.27L337.34 170.46L337.65 169.66L337.96 168.89L338.26 168.13L338.57 167.38L338.88 166.66L339.2 165.96L339.51 165.27L339.82 164.6L340.14 163.95L340.46 163.31L340.78 162.7L341.1 162.1L341.42 161.53L341.73 160.98L342.05 160.47L342.35 159.98L342.66 159.53L342.96 159.1L343.26 158.7L343.56 158.34L343.85 158L344.14 157.69L344.42 157.41L344.71 157.16L344.99 156.94L345.26 156.75L345.53 156.59L345.8 156.45L346.07 156.35L346.33 156.28L346.59 156.23L346.85 156.22L347.1 156.23L347.35 156.28L347.59 156.35L347.84 156.45L348.07 156.59L348.31 156.75L348.54 156.94L348.77 157.16L349 157.41L349.22 157.69L349.44 158L349.65 158.34L349.87 158.7L350.07 159.1L350.28 159.53L350.48 159.98L350.68 160.47L350.88 160.98L351.07 161.53L351.26 162.1L345.91 216.65L347.79 216.03L349.59 215.46L351.29 214.94L352.91 214.47L354.44 214.05L355.89 213.67L357.24 213.35L358.51 213.07L359.69 212.85L360.78 212.67L361.79 212.54L362.71 212.46L363.54 212.43L364.28 212.44L364.94 212.51L365.5 212.62L365.98 212.79L366.38 213L366.68 213.26L366.9 213.57L367.03 213.93L367.07 214.34L367.03 214.79L366.89 215.3L366.67 215.85L366.37 216.46L365.97 217.11L365.49 217.81L364.92 218.56L364.26 219.35L363.51 220.2L362.68 221.1L361.76 222.04L360.75 223.03L359.66 224.07L358.47 225.17L357.2 226.3L355.84 227.49L354.4 228.73L352.86 230.02L351.3 231.33L349.79 232.64L348.31 233.95L346.87 235.26L345.47 236.56L344.11 237.87L342.79 239.18L341.5 240.49L340.26 241.8L339.06 243.11L337.9 244.42L336.77 245.73L335.69 247.04L334.64 248.35L333.64 249.66L332.67 250.97L331.74 252.27L330.86 253.58L330.01 254.89L329.2 256.2L328.43 257.51L327.7 258.82L327.01 260.12L326.36 261.43L325.75 262.74L325.5 263.31L347.72 438.12L347.79 438.32L348.18 439.49L348.51 440.68L348.77 441.89L348.97 443.12L349.11 444.38L349.17 445.65L349.16 446.92L349.09 448.18L348.95 449.42L348.74 450.64L348.46 451.85L348.13 453.03L347.73 454.19L347.28 455.32L346.76 456.43L346.19 457.51L345.57 458.56L344.89 459.58L344.17 460.57L343.39 461.52L342.56 462.44L341.69 463.32L340.78 464.16L339.82 464.96L338.82 465.72L337.79 466.43L336.71 467.1L335.6 467.72L334.45 468.29L333.27 468.82L332.06 469.29L330.83 469.7L329.56 470.07L328.26 470.37L326.95 470.62L325.61 470.81L324.25 470.93L322.86 471L321.48 471L320.12 470.93L318.77 470.81L317.44 470.62L316.14 470.37L314.85 470.07L313.6 469.71L312.37 469.29L311.16 468.82L309.99 468.3L308.86 467.73L307.75 467.11L306.68 466.45L305.65 465.73L304.66 464.98L303.7 464.18L302.8 463.34L301.93 462.46L301.11 461.55L300.34 460.59L299.62 459.6L298.95 458.58L298.33 457.53L297.77 456.45L297.26 455.33L296.81 454.19L296.42 453.03L296.09 451.84L295.83 450.63L295.63 449.39L295.5 448.14L295.43 446.87L295.44 445.59L295.52 444.34L295.66 443.1L295.87 441.87L295.95 441.52L283.09 265.2L282.87 264.96L282.27 264.24L281.7 263.51L281.14 262.76L280.59 261.99L280.07 261.2L279.57 260.4L279.08 259.57L278.62 258.73L278.17 257.87L277.74 256.98L277.33 256.08L276.94 255.17L276.56 254.23L276.21 253.27L275.87 252.3L275.56 251.31L275.26 250.29L274.98 249.26L274.72 248.21L274.48 247.15L274.25 246.06L274.05 244.95L273.86 243.83L273.7 242.69L273.55 241.52L273.42 240.34L273.31 239.14L273.21 237.93L273.14 236.69L273.09 235.43L273.05 234.16L273.03 232.87L273.03 231.56L273.05 230.23L273.09 228.88L273.15 227.51L273.23 226.12L273.32 224.72L273.43 223.29L273.57 221.85L273.72 220.39L273.09 218.59L272.48 216.82L271.89 215.08L271.32 213.38L270.77 211.71L270.24 210.07L269.73 208.46L269.25 206.89L268.78 205.35L268.34 203.85L267.91 202.37L267.51 200.93L267.13 199.52L266.76 198.15L266.42 196.8L266.1 195.49L265.8 194.21L265.52 192.97L265.27 191.76L265.03 190.58L264.81 189.43L264.62 188.32L264.44 187.23L264.28 186.19L264.15 185.17L264.04 184.19L263.94 183.24L263.87 182.32L263.82 181.44L263.79 180.58L263.78 179.76L263.79 178.98L263.82 178.22L263.88 177.5L263.95 176.82L264.04 176.16L264.16 175.54L264.29 174.95L264.45 174.39L264.63 173.87L264.82 173.37L265.01 172.9L265.2 172.45L265.39 172.03L265.59 171.63L265.79 171.25L265.99 170.9L266.19 170.57L266.39 170.27L266.6 169.99L266.81 169.73L267.02 169.5L267.23 169.29L267.44 169.11L267.66 168.95L267.88 168.82L268.1 168.71L268.32 168.62L268.55 168.56L268.77 168.52L269 168.5L269.23 168.51L269.46 168.54L269.7 168.6L269.93 168.68L270.17 168.79L270.41 168.92L270.65 169.07L270.9 169.25L271.14 169.45L271.39 169.68L271.64 169.93L271.9 170.2L272.15 170.5L272.41 170.82L272.66 171.17L272.92 171.54L273.19 171.93L273.45 172.35L273.72 172.79L287.09 201.14L286.88 199.6L286.68 198.09L286.49 196.62L286.32 195.17L286.15 193.74L286 192.35L285.85 190.99L285.72 189.65L285.6 188.35L285.48 187.07L285.38 185.82L285.29 184.6L285.21 183.41L285.14 182.24L285.08 181.11L285.03 180L285 178.93L284.97 177.88L284.95 176.86L284.95 175.87L284.95 174.91L284.97 173.98L285 173.07L285.03 172.2L285.08 171.35L285.14 170.53L285.21 169.74L285.29 168.98L285.38 168.25L285.48 167.55L285.6 166.87L285.72 166.23L285.85 165.61L286 165.02L286.15 164.47L286.32 163.94L286.49 163.43L286.68 162.96L286.88 162.52L287.09 162.1L287.3 161.71L287.53 161.33L287.75 160.97L287.99 160.62L288.22 160.29L288.47 159.97L288.72 159.67L288.97 159.38L289.23 159.11L289.49 158.86L289.76 158.62L290.04 158.4L290.32 158.19L290.61 157.99L290.9 157.81L291.19 157.65L291.5 157.5L291.8 157.37L292.12 157.26L292.43 157.15L292.76 157.07L293.09 157L293.42 156.94L293.76 156.9L294.11 156.88L294.46 156.87L294.81 156.88L295.17 156.9L295.54 156.93L295.91 156.99L296.29 157.06L296.67 157.14L297.06 157.24L297.45 157.35L297.85 157.48L298.25 157.62L298.66 157.79L299.08 157.96L299.5 158.15L299.92 158.36L306.34 200.07L306.42 198.66L306.51 197.27L306.61 195.9L306.72 194.55L306.83 193.22L306.95 191.9L307.08 190.61L307.22 189.33L307.36 188.07L307.51 186.83L307.67 185.61L307.83 184.41L308 183.23L308.18 182.06L308.37 180.92L308.56 179.79L308.76 178.68L308.97 177.59L309.19 176.52L309.41 175.47L309.64 174.44L309.88 173.42L310.13 172.43L310.38 171.45L310.64 170.49L310.91 169.55L311.18 168.63L311.47 167.73L311.76 166.84L312.05 165.98L312.36 165.13L312.67 164.3L312.99 163.5L313.32 162.71L313.65 161.93L313.99 161.18L314.34 160.45L314.7 159.73L315.06 159.04L315.43 158.36L315.8 157.71L316.17 157.09L316.53 156.5L316.89 155.95L317.25 155.43L317.6 154.95L317.95 154.5L318.3 154.08L318.64 153.7L318.97 153.34L319.3 153.03L319.63 152.74L319.96 152.49L320.28 152.27L320.59 152.09L320.91 151.94L321.21 151.82L321.52 151.74L321.82 151.69L322.11 151.67L322.41 151.69L322.69 151.74Z" id="a29M7AO16Y"></path></defs><g><g><use xlink:href="#a29M7AO16Y" opacity="1" fill="#ffcb94" fill-opacity="1"></use><g><use xlink:href="#a29M7AO16Y" opacity="1" fill-opacity="0" stroke="#ffcb94" stroke-width="1" stroke-opacity="1"></use></g></g></g></svg>