<?xml version="1.0" encoding="UTF-8" standalone="no"?>
<!DOCTYPE svg PUBLIC "-//W3C//DTD SVG 1.1//EN" "http://www.w3.org/Graphics/SVG/1.1/DTD/svg11.dtd">
<svg preserveAspectRatio="none" version="1.1" xmlns="http://www.w3.org/2000/svg" xmlns:xlink="http://www.w3.org/1999/xlink" viewBox="69.55379752704792 113.00309119010815 521.4523848531685 110.90950540958276" width="517.45" height="106.91"><defs><path d="M587.28 211.74L582.27 213.18L577.18 214.5L572 215.7L566.74 216.77L561.4 217.72L555.97 218.55L550.46 219.25L544.87 219.83L539.2 220.29L533.44 220.62L527.6 220.83L521.68 220.91L515.68 220.87L509.59 220.71L503.42 220.43L497.17 220.02L490.83 219.49L484.41 218.83L477.91 218.05L471.33 217.15L464.66 216.12L457.91 214.97L451.08 213.7L444.17 212.3L437.17 210.78L430.09 209.14L422.92 207.37L415.68 205.48L408.35 203.47L400.94 201.33L393.44 199.07L385.87 196.69L378.21 194.18L370.46 191.55L362.64 188.79L354.73 185.91L346.74 182.91L338.67 179.79L330.51 176.54L322.34 173.27L314.22 170.09L306.15 167L298.14 163.99L290.18 161.08L282.27 158.25L274.41 155.5L266.61 152.85L258.86 150.28L251.16 147.8L243.51 145.41L235.92 143.1L228.38 140.88L220.89 138.75L213.45 136.71L206.07 134.75L198.74 132.88L191.46 131.1L184.24 129.4L177.06 127.8L169.94 126.28L162.87 124.85L155.86 123.5L148.9 122.24L141.99 121.07L135.13 119.99L128.32 118.99L121.57 118.09L114.87 117.27L108.22 116.53L101.63 115.89L95.09 115.33L88.6 114.86L82.16 114.47L75.77 114.18L70.55 114L588.01 114L588.01 211.51L587.28 211.74Z" id="euu0XExVB"></path></defs><g><g><use xlink:href="#euu0XExVB" opacity="1" fill="#ffffff" fill-opacity="1"></use></g></g></svg>
