<?xml version="1.0" encoding="UTF-8" standalone="no"?>
<!DOCTYPE svg PUBLIC "-//W3C//DTD SVG 1.1//EN" "http://www.w3.org/Graphics/SVG/1.1/DTD/svg11.dtd">
<svg version="1.1" xmlns="http://www.w3.org/2000/svg" xmlns:xlink="http://www.w3.org/1999/xlink" preserveAspectRatio="xMidYMid meet" viewBox="43.111282843894884 180.79289026275117 476.9211746522411 264.6491499227203" width="472.92" height="260.65"><defs><path d="M61.75 218.56L61 218.52L60.25 218.44L59.52 218.34L58.8 218.2L58.08 218.04L57.38 217.86L56.69 217.64L56.01 217.4L55.34 217.13L54.69 216.84L54.05 216.53L53.43 216.19L52.82 215.82L52.22 215.44L51.64 215.03L51.08 214.6L50.53 214.15L50.01 213.68L49.5 213.19L49.01 212.68L48.54 212.16L48.09 211.61L47.66 211.05L47.25 210.47L46.87 209.87L46.5 209.26L46.16 208.64L45.85 208L45.56 207.34L45.29 206.68L45.05 206L44.83 205.31L44.65 204.61L44.48 203.89L44.35 203.17L44.25 202.44L44.17 201.69L44.13 200.94L44.11 200.19L44.13 199.43L44.17 198.68L44.25 197.94L44.35 197.2L44.48 196.48L44.65 195.77L44.83 195.06L45.05 194.37L45.29 193.69L45.56 193.03L45.85 192.37L46.16 191.73L46.5 191.11L46.87 190.5L47.25 189.9L47.66 189.32L48.09 188.76L48.54 188.22L49.01 187.69L49.5 187.18L50.01 186.69L50.53 186.22L51.08 185.77L51.64 185.34L52.22 184.93L52.82 184.55L53.43 184.19L54.05 183.85L54.69 183.53L55.34 183.24L56.01 182.97L56.69 182.73L57.38 182.52L58.08 182.33L58.8 182.17L59.52 182.03L60.25 181.93L61 181.85L61.75 181.81L62.5 181.79L517.03 181.79L517.03 218.58L62.5 218.58L62.5 218.58L61.75 218.56Z" id="aHa6WMlvU"></path><path d="M95.09 442.44L95.09 218.58L517.03 218.58L517.03 442.44L95.09 442.44Z" id="jDMLxqIba"></path></defs><g><g><use xlink:href="#aHa6WMlvU" opacity="1" fill="#905f00" fill-opacity="1"></use></g><g><use xlink:href="#jDMLxqIba" opacity="1" fill="#5d2a00" fill-opacity="1"></use></g></g></svg>