<?xml version="1.0" encoding="UTF-8" standalone="no"?>
<!DOCTYPE svg PUBLIC "-//W3C//DTD SVG 1.1//EN" "http://www.w3.org/Graphics/SVG/1.1/DTD/svg11.dtd">
<svg version="1.1" xmlns="http://www.w3.org/2000/svg" xmlns:xlink="http://www.w3.org/1999/xlink" preserveAspectRatio="xMidYMid meet" viewBox="224.71446176819916 296.08664337238184 207.55826550452844 119.63866242970033" width="203.56" height="115.64"><defs><path d="M371.09 297.09L381.98 319.81L334.31 328.08L333.21 303.66L371.09 297.09Z" id="cyv21Q8dz"></path><path d="M429.27 412.73L317.51 412.73L314 394.33L313.17 394.54L311.5 394.99L309.84 395.44L308.19 395.9L306.55 396.37L304.92 396.85L303.31 397.34L301.7 397.83L300.11 398.33L298.52 398.84L296.95 399.35L295.38 399.87L293.83 400.4L292.29 400.94L290.76 401.49L289.24 402.04L287.73 402.6L286.23 403.17L284.74 403.74L283.27 404.32L281.8 404.91L280.35 405.51L278.9 406.12L277.47 406.73L276.05 407.35L274.64 407.98L273.23 408.61L271.84 409.25L270.46 409.9L258.27 371.28L258.5 371.2L258.77 371.1L259.09 370.98L259.45 370.84L259.85 370.68L260.29 370.5L260.77 370.3L261.29 370.07L261.85 369.83L262.45 369.56L263.09 369.28L263.78 368.97L264.5 368.64L265.27 368.29L266.07 367.92L266.92 367.53L267.81 367.12L268.74 366.69L269.71 366.23L270.72 365.76L271.77 365.26L272.86 364.75L273.99 364.21L275.17 363.65L276.38 363.07L277.63 362.47L278.93 361.85L280.27 361.21L281.64 360.55L283.06 359.87L284.49 359.17L285.91 358.47L287.31 357.77L288.69 357.06L290.06 356.35L291.41 355.64L292.75 354.92L294.07 354.2L295.37 353.48L296.66 352.75L297.93 352.01L299.19 351.28L300.43 350.54L301.66 349.79L302.87 349.05L304.06 348.29L305.24 347.54L306.4 346.78L307.55 346.02L308.58 345.32L326.25 330.92L326.35 330.82L327.18 329.98L328 329.14L328.17 329.36L334.85 323.91L335.64 324.58L336.56 324.69L337.59 324.8L338.63 324.89L339.67 324.96L340.72 325.02L341.77 325.05L342.82 325.08L343.88 325.08L344.95 325.07L346.02 325.03L347.09 324.99L348.17 324.92L349.26 324.84L350.34 324.74L351.44 324.62L352.54 324.49L353.64 324.34L354.75 324.17L355.86 323.99L356.98 323.78L358.1 323.56L359.23 323.33L360.37 323.07L361.5 322.8L362.65 322.51L363.79 322.21L364.94 321.89L366.1 321.55L367.26 321.19L368.43 320.82L369.6 320.42L370.78 320.02L371.96 319.59L373.15 319.15L374.34 318.69L375.53 318.21L376.73 317.72L377.94 317.21L378.25 317.07L379.79 315.06L429.27 317.85L429.27 412.73ZM258.26 371.28L258.07 371.34L257.92 371.37L257.8 371.39L257.73 371.38L257.7 371.36L257.71 371.31L257.76 371.24L257.85 371.15L257.98 371.04L258.16 370.91L258.27 371.28L258.26 371.28Z" id="b2orxXKlJ"></path><path d="M268.97 404.84L240.49 412.62L240.44 412.73L240.29 412.68L240.11 412.73L240.05 412.6L237.16 411.67L234.29 410.41L231.84 408.96L229.79 407.3L228.15 405.44L226.93 403.39L226.12 401.13L225.71 398.67L225.72 396.01L226.14 393.15L226.97 390.09L228.22 386.83L228.79 385.62L228.7 385.38L228.97 385.25L229.87 383.36L239.77 379.34L254.75 373.37L258.19 371.79L258.25 371.98L258.73 371.79L258.42 372.49L268.97 404.84Z" id="j3vzWxfg8Q"></path><path d="M353.3 412.73L353.3 342.99L353.49 342.05L354 341.28L354.77 340.76L355.67 340.58L355.67 340.57L429.27 340.57L429.27 412.73L353.3 412.73Z" id="d2EldgueGT"></path><path d="M355.42 341.67L355.42 341.58L354.6 341.76L353.93 342.24L353.47 342.96L353.4 343.34L353.3 342.84L353.47 341.95L353.93 341.23L354.6 340.75L355.42 340.57L355.42 340.57L429.27 340.57L429.27 341.67L355.42 341.67Z" id="a26CawpIle"></path></defs><g><g><use xlink:href="#cyv21Q8dz" opacity="1" fill="#f6c085" fill-opacity="1"></use><g><use xlink:href="#cyv21Q8dz" opacity="1" fill-opacity="0" stroke="#f6c085" stroke-width="1" stroke-opacity="1"></use></g></g><g><use xlink:href="#b2orxXKlJ" opacity="1" fill="#000000" fill-opacity="1"></use><g><use xlink:href="#b2orxXKlJ" opacity="1" fill-opacity="0" stroke="#000000" stroke-width="1" stroke-opacity="1"></use></g></g><g><use xlink:href="#j3vzWxfg8Q" opacity="1" fill="#ffcb94" fill-opacity="1"></use><g><use xlink:href="#j3vzWxfg8Q" opacity="1" fill-opacity="0" stroke="#ffcb94" stroke-width="1" stroke-opacity="1"></use></g></g><g><use xlink:href="#d2EldgueGT" opacity="1" fill="#9e9e9e" fill-opacity="1"></use></g><g><use xlink:href="#a26CawpIle" opacity="1" fill="#424242" fill-opacity="1"></use></g></g></svg>